<svg width="97" height="77" viewBox="0 0 97 77" fill="none" xmlns="http://www.w3.org/2000/svg">
<path d="M95.9645 0.749953L91.9907 0.533268C90.0267 0.424925 46.9546 -1.77804 27.4054 13.715C10.277 27.2939 14.7076 51.346 16.5346 58.4605L0 71.4977L6.44027 76.5898L22.9292 63.5526C29.2036 64.5265 35.5817 65.0224 41.9759 65.0332C54.3083 65.0332 69.3813 63.0109 79.5213 54.9213C99.1618 39.5005 96.3756 5.4448 96.2386 3.89189L95.9645 0.749953ZM73.1267 49.8653C61.8905 58.7494 42.2043 58.3521 31.0138 57.0881L41.6562 48.7819H62.6213V41.559H50.7913L59.9264 34.3362H76.324V27.1133H69.0616L79.5213 18.8432L73.081 13.715L62.6213 22.0212V16.2791H53.4862V29.2441L44.351 36.4669V27.1133H35.2159V43.6898L24.5278 52.1405C23.1575 43.2925 22.6551 27.7273 33.6629 18.8432C47.32 8.22559 76.324 7.50331 87.2861 7.61165C87.4232 16.2791 86.5097 39.2116 73.081 49.8292L73.1267 49.8653Z" fill="#C8EEC4"/>
</svg>
