<svg width="92" height="78" viewBox="0 0 92 78" fill="none" xmlns="http://www.w3.org/2000/svg">
<path d="M0.096962 2.77986C0.46907 1.54253 1.87402 0.670898 3.4772 0.670898C3.48415 0.670898 3.49111 0.670898 3.49807 0.670898C21.8146 0.761636 66.3559 3.18956 84.3386 23.7128C93.6794 34.3759 94.4828 48.2203 86.7277 64.861C86.6686 64.9902 86.5469 65.0782 86.4669 65.1965C89.2385 70.6215 90.3131 74.2318 90.3409 74.3335C90.7443 75.8183 89.5446 77.2811 87.6667 77.6001C87.4232 77.6413 87.1798 77.6605 86.9364 77.6605C85.3332 77.6605 83.89 76.7779 83.5387 75.4883C83.4657 75.2079 74.6047 46.9664 43.2784 30.4549C41.6787 29.6135 41.2475 27.906 42.3151 26.6412C43.3828 25.3763 45.5389 25.0326 47.1386 25.8795C64.9022 35.242 75.8428 47.8985 82.2764 57.9292C86.8807 45.3414 85.674 34.8955 78.6179 26.8446C64.7318 10.9958 31.7954 7.17377 11.9139 6.36538C16.1913 11.3175 20.8652 20.3967 20.8652 36.4161C20.8652 44.9949 23.9429 51.5995 30.0079 56.0485C39.7313 63.1727 55.5266 63.8409 67.0792 63.1535C68.9988 63.0298 70.6646 64.1736 70.8107 65.6887C70.9567 67.201 69.5205 68.5208 67.6078 68.6363C65.2952 68.7765 62.8261 68.8617 60.2596 68.8617C48.4983 68.8617 34.7792 67.0387 25.2818 60.0794C17.7354 54.5499 13.91 46.5897 13.91 36.4188C13.91 11.4 1.98183 5.90894 1.92271 5.8842C0.476028 5.30952 -0.282097 4.0227 0.096962 2.77986Z" fill="#C8EEC4"/>
</svg>
