<svg width="113" height="95" viewBox="0 0 113 95" fill="none" xmlns="http://www.w3.org/2000/svg">
<path d="M0.119087 2.60232C0.576126 1.07554 2.30177 0 4.2709 0C4.27943 0 4.28798 0 4.29652 0C26.7941 0.111964 81.5023 3.10786 103.59 28.4321C115.063 41.5896 116.049 58.6727 106.524 79.2062C106.452 79.3657 106.302 79.4743 106.204 79.6202C109.608 86.3143 110.928 90.7691 110.962 90.8946C111.458 92.7268 109.984 94.5318 107.678 94.9254C107.379 94.9763 107.08 95 106.781 95C104.811 95 103.039 93.9109 102.607 92.3196C102.518 91.9736 91.6341 57.1255 53.1572 36.7514C51.1924 35.7132 50.6627 33.6063 51.974 32.0455C53.2854 30.4848 55.9336 30.0607 57.8985 31.1057C79.7168 42.6584 93.1547 58.2757 101.057 70.6529C106.712 55.1204 105.23 42.2309 96.5633 32.2966C79.5076 12.7402 39.053 8.02411 14.6333 7.02661C19.8872 13.1371 25.628 24.3404 25.628 44.1071C25.628 54.6929 29.4082 62.8425 36.8575 68.3321C48.8004 77.123 68.2011 77.9475 82.3908 77.0993C84.7486 76.9466 86.7946 78.358 86.974 80.2275C87.1534 82.0936 85.3893 83.7222 83.04 83.8646C80.1995 84.0377 77.1668 84.1429 74.0145 84.1429C59.5686 84.1429 42.7179 81.8934 31.0527 73.3061C21.7837 66.483 17.0851 56.6607 17.0851 44.1105C17.0851 13.2389 2.43419 6.46339 2.36157 6.43286C0.584671 5.72375 -0.346497 4.13589 0.119087 2.60232Z" fill="#C8EEC4"/>
</svg>
