<svg width="54" height="54" viewBox="0 0 54 54" fill="none" xmlns="http://www.w3.org/2000/svg">
<path d="M38.3631 45.63C36.1581 47.7675 33.7506 47.43 31.4331 46.4175C28.9806 45.3825 26.7306 45.3375 24.1431 46.4175C20.9031 47.8125 19.1931 47.4075 17.2581 45.63C6.27811 34.3125 7.89811 17.0775 20.3631 16.4475C23.4006 16.605 25.5156 18.1125 27.2931 18.2475C29.9481 17.7075 32.4906 16.155 35.3256 16.3575C38.7231 16.6275 41.2881 17.9775 42.9756 20.4075C35.9556 24.615 37.6206 33.8625 44.0556 36.45C42.7731 39.825 41.1081 43.1775 38.3406 45.6525L38.3631 45.63ZM27.0681 16.3125C26.7306 11.295 30.8031 7.155 35.4831 6.75C36.1356 12.555 30.2181 16.875 27.0681 16.3125Z" fill="black"/>
</svg>
