<svg width="22" height="24" viewBox="0 0 22 24" fill="none" xmlns="http://www.w3.org/2000/svg">
<g clip-path="url(#clip0_2654_6109)">
<path d="M10.1446 11.4417L0.0957031 21.9698C0.208551 22.3698 0.411342 22.7386 0.688575 23.0481C0.965807 23.3576 1.31014 23.5997 1.69526 23.7558C2.08037 23.9118 2.49607 23.9778 2.91057 23.9485C3.32508 23.9193 3.72741 23.7957 4.08683 23.5872L15.3937 17.1475L10.1446 11.4417Z" fill="#EA4335"/>
<path d="M20.3053 9.65218L15.4158 6.85156L9.91211 11.6812L15.4382 17.1326L20.2905 14.362C20.7203 14.1369 21.0804 13.7984 21.3316 13.3833C21.5828 12.9682 21.7156 12.4922 21.7156 12.007C21.7156 11.5218 21.5828 11.0459 21.3316 10.6307C21.0804 10.2156 20.7203 9.87718 20.2905 9.6521H20.3055L20.3053 9.65218Z" fill="#FBBC04"/>
<path d="M0.0938283 1.99194C0.0330885 2.21649 0.0028523 2.4482 0.00393429 2.68082V21.281C0.00456404 21.5135 0.0347711 21.745 0.0938283 21.9699L10.4872 11.7113L0.0938283 1.99194Z" fill="#4285F4"/>
<path d="M10.2195 11.9808L15.4162 6.85154L4.12431 0.381885C3.69946 0.133071 3.21626 0.00130453 2.72392 5.20116e-06C1.50212 -0.00236936 0.427972 0.808542 0.0957031 1.98437L10.2195 11.9808Z" fill="#34A853"/>
</g>
<defs>
<clipPath id="clip0_2654_6109">
<rect width="21.72" height="24" fill="white"/>
</clipPath>
</defs>
</svg>
