<svg width="96" height="99" viewBox="0 0 96 99" fill="none" xmlns="http://www.w3.org/2000/svg">
<g clip-path="url(#clip0_2654_6122)">
<path d="M34.9093 0.00018158C30.3249 0.000181379 25.7855 0.903128 21.5501 2.65748C17.3148 4.41182 13.4664 6.98321 10.2248 10.2248C6.98321 13.4664 4.41182 17.3148 2.65747 21.5501C0.903124 25.7855 0.000177202 30.3249 0.000177002 34.9093L34.9093 34.9093L34.9093 0.00018158Z" fill="#DAF4D8"/>
<path d="M61.0909 28.3635C56.5066 28.3635 51.9671 29.2664 47.7318 31.0208C43.4964 32.7751 39.6481 35.3465 36.4065 38.5881C33.1648 41.8297 30.5935 45.6781 28.8391 49.9134C27.0848 54.1488 26.1818 58.6882 26.1818 63.2725L61.0909 63.2726L61.0909 28.3635Z" fill="#27AE60"/>
</g>
<defs>
<clipPath id="clip0_2654_6122">
<rect width="96" height="98.1815" fill="white" transform="matrix(-1 0 0 1 96 0)"/>
</clipPath>
</defs>
</svg>
